<svg xmlns="http://www.w3.org/2000/svg" width="267.563" height="64.594" viewBox="0 0 267.563 64.594">
  <defs>
    <style>
      .cls-1 {
        fill: #335eea;
      }

      .cls-1, .cls-2 {
        fill-rule: evenodd;
      }

      .cls-2 {
        fill: #161c2d;
      }
    </style>
  </defs>
  <g id="shape">
    <path class="cls-1" d="M3.188,42.811S-8.385,19.664,15.993,4.642c0,0,6.44,5.672,7.88,7.634,0,0,4.859,6.586-1.477,11.574Z" transform="translate(-0.438 -0.125)"/>
    <path id="Shape_1_copy" data-name="Shape 1 copy" class="cls-1" d="M19.571,2.573S42.993-8.435,57.417,16.3c0,0-5.827,6.3-7.823,7.692,0,0-6.7,4.7-11.534-1.759Z" transform="translate(-0.438 -0.125)"/>
    <path id="Shape_1_copy_2" data-name="Shape 1 copy 2" class="cls-1" d="M59.667,19.717S70.95,43.007,46.385,57.723c0,0-6.369-5.752-7.784-7.732,0,0-4.776-6.646,1.622-11.554Z" transform="translate(-0.438 -0.125)"/>
    <path id="Shape_1_copy_3" data-name="Shape 1 copy 3" class="cls-1" d="M43.385,59.488S20.479,71.533,4.962,47.466c0,0,5.539-6.555,7.471-8.034,0,0,6.485-4.993,11.6,1.24Z" transform="translate(-0.438 -0.125)"/>
  </g>
  <path id="Oxoury_" data-name="Oxoury " class="cls-2" d="M116.158,29.636a25.553,25.553,0,0,0-2.27-11.059,16.913,16.913,0,0,0-6.416-7.353,18.8,18.8,0,0,0-18.955,0A16.9,16.9,0,0,0,82.1,18.576a25.612,25.612,0,0,0-2.27,11.089v2.109a25.009,25.009,0,0,0,2.314,10.884,16.93,16.93,0,0,0,6.445,7.28,18.83,18.83,0,0,0,18.97-.029,16.775,16.775,0,0,0,6.372-7.324,25.755,25.755,0,0,0,2.226-11.045v-1.9Zm-8.906,2.051q-0.03,6.651-2.4,10.122a8.413,8.413,0,0,1-13.711-.132q-2.4-3.6-2.4-10.137V29.46q0.029-6.65,2.432-10.093a8.487,8.487,0,0,1,13.682.044q2.4,3.487,2.4,10.2v2.08ZM128.844,20.2h-9.082l8.994,15.527-9.4,16.172h9.111l5.625-9.961,5.654,9.961h9.082l-9.4-16.172L148.443,20.2h-9.052l-5.332,9.463ZM150.025,36.14q0,7.559,4.087,11.953t10.943,4.394q6.855,0,10.928-4.409t4.072-11.7L180,34.206q-0.468-6.738-4.526-10.664A14.437,14.437,0,0,0,165,19.616a15.256,15.256,0,0,0-7.925,2.021,13.3,13.3,0,0,0-5.229,5.713,18.8,18.8,0,0,0-1.817,8.408V36.14Zm10.166-7.277A5.529,5.529,0,0,1,165,26.443a5.618,5.618,0,0,1,4.863,2.435,11.726,11.726,0,0,1,1.729,6.866q0,5.194-1.729,7.555a6.1,6.1,0,0,1-9.668-.029q-1.7-2.391-1.7-6.91Q158.492,31.284,160.191,28.863Zm44.3,23.038h7.969V20.2h-8.5V42.669q-1.611,2.992-5.918,2.992-4.512,0-4.512-4.957V20.2h-8.466V40.974q0.057,5.655,2.739,8.584t7.778,2.93a10.617,10.617,0,0,0,8.672-3.809ZM236.774,20a8.889,8.889,0,0,0-2.637-.381q-4.512,0-7.061,4.365L226.842,20.2h-8V51.9h8.467V31.159q1.494-3.252,6.3-3.252a23.024,23.024,0,0,1,3.047.234ZM247.2,20.2h-9.111L249.2,51.99l-1,2.607a4.812,4.812,0,0,1-1.86,2.432,6.97,6.97,0,0,1-3.589.732l-1.289-.029v6.416a13.332,13.332,0,0,0,3.75.557q6.532,0,9.375-6.211l0.7-1.67L268.033,20.2h-9.082l-5.859,19.717Z" transform="translate(-0.438 -0.125)"/>
</svg>
